<svg xmlns="http://www.w3.org/2000/svg" viewBox="0 0 113 43">
  <path fill="currentColor" d="M21.2782 21.5925C20.5957 20.3481 19.675 19.3931 18.5162 18.7281C17.3565 18.0632 16.1121 17.7306 14.7822 17.7306C13.4523 17.7306 12.2248 18.0553 11.0995 18.7024C9.97418 19.3509 9.0616 20.297 8.3631 21.5416C7.66378 22.7866 7.3144 24.261 7.3144 25.9657C7.3144 27.6715 7.66378 29.1627 8.3631 30.4414C9.0616 31.7201 9.9823 32.7009 11.1252 33.3824C12.2672 34.0652 13.4859 34.4056 14.7822 34.4056C16.1121 34.4056 17.3565 34.073 18.5162 33.4081C19.675 32.7431 20.5957 31.7889 21.2782 30.5437C21.96 29.2996 22.3012 27.8073 22.3012 26.0682C22.3012 24.3289 21.96 22.838 21.2782 21.5925ZM1.71365 18.3447C2.85572 16.1284 4.40699 14.4237 6.36826 13.2297C8.32873 12.0362 10.5192 11.4392 12.9409 11.4392C15.0548 11.4392 16.9051 11.8662 18.4907 12.7182C20.0764 13.5707 21.3462 14.6448 22.3012 15.9403V11.8998H29.5133V40.2367H22.3012V36.0936C21.3805 37.4235 20.1099 38.5233 18.4907 39.3926C16.8707 40.2621 15.0036 40.697 12.8897 40.697C10.5024 40.697 8.32873 40.083 6.36826 38.8556C4.40699 37.6281 2.85572 35.8976 1.71365 33.6638C0.570765 31.4311 0 28.8647 0 25.9657C0 23.1013 0.570765 20.5614 1.71365 18.3447Z"/>
  <path fill="currentColor" d="M59.9765 18.2366H55.015V40.6913H47.7517V18.2366H44.5293V12.3544H47.7517V10.9222C47.7517 7.44403 48.7403 4.88655 50.7184 3.24976C52.6956 1.61271 55.6799 0.845459 59.6696 0.948029V6.98368C57.9305 6.95012 56.7197 7.23916 56.038 7.85323C55.3554 8.46675 55.015 9.57553 55.015 11.178V12.3544H59.9765V18.2366Z"/>
  <path fill="currentColor" d="M72.6504 34.0986L79.8114 12.3784H87.4326L76.947 40.6912H68.2515L57.817 12.3784H65.4895L72.6504 34.0986Z"/>
  <path fill="currentColor" d="M105.583 24.7725C105.549 22.9308 104.884 21.4564 103.588 20.3479C102.292 19.2405 100.706 18.6857 98.8316 18.6857C97.0581 18.6857 95.5658 19.2226 94.3558 20.2968C93.1453 21.3712 92.4035 22.8629 92.131 24.7725H105.583ZM112.795 29.5805H92.0798C92.25 31.6263 92.9661 33.2298 94.2281 34.3883C95.4892 35.548 97.0413 36.1277 98.8827 36.1277C101.542 36.1277 103.435 34.9854 104.56 32.7007H112.284C111.466 35.4292 109.897 37.6708 107.578 39.4267C105.259 41.1834 102.412 42.0611 99.0362 42.0611C96.3076 42.0611 93.8614 41.4559 91.6963 40.2451C89.5302 39.0351 87.8422 37.3217 86.6322 35.1047C85.4214 32.8882 84.8166 30.331 84.8166 27.4323C84.8166 24.4997 85.4128 21.9254 86.6068 19.7087C87.8 17.4925 89.4712 15.7877 91.6195 14.5937C93.7677 13.4002 96.2397 12.8032 99.0362 12.8032C101.729 12.8032 104.142 13.3837 106.274 14.5423C108.404 15.7019 110.059 17.3477 111.235 19.4784C112.412 21.6099 113 24.0564 113 26.8185C113 27.8415 112.931 28.7619 112.795 29.5805Z"/>
  <path fill="currentColor" d="M42.7483 12.7693C44.2316 11.9176 45.9276 11.4905 47.8375 11.4905V19.0098H45.9452C43.6944 19.0098 41.9978 19.5386 40.8557 20.5952C39.7128 21.6525 39.1421 23.4939 39.1421 26.1193V40.2366H31.9811V11.8997H39.1421V16.2986C40.0628 14.7985 41.2649 13.622 42.7483 12.7693Z"/>
</svg> 